<?xml version="1.0" standalone="no"?>
<!DOCTYPE svg PUBLIC "-//W3C//DTD SVG 20010904//EN"
"http://www.w3.org/TR/2001/REC-SVG-20010904/DTD/svg10.dtd">
<svg version="1.0" xmlns="http://www.w3.org/2000/svg"
width="640.000000pt" height="640.000000pt" viewBox="0 0 640.000000 640.000000"
preserveAspectRatio="xMidYMid meet">
<g transform="translate(0.000000,640.000000) scale(0.100000,-0.100000)"
fill="#830abb" stroke="none">
<path d="M3519 4430 c-377 -60 -752 -262 -1060 -571 -491 -493 -673 -1150
-429 -1550 37 -62 40 -64 76 -62 58 4 200 51 289 95 117 59 228 140 336 248
199 197 265 322 369 700 78 281 179 466 354 648 181 189 397 335 585 397 l53
17 -43 20 c-91 41 -190 59 -334 63 -77 2 -165 0 -196 -5z"/>
<path d="M4275 4153 c-241 -57 -420 -159 -611 -348 -173 -173 -261 -324 -330
-573 -94 -335 -150 -467 -265 -624 -85 -114 -254 -280 -374 -365 -92 -65 -227
-140 -284 -158 -13 -4 -40 -14 -60 -22 l-36 -15 36 -19 c86 -44 196 -63 359
-63 239 -1 423 46 665 166 147 73 177 92 313 192 421 310 712 755 777 1186 34
218 0 425 -94 580 -38 64 -52 74 -96 63z"/>
</g>
</svg>
